# xmcd
#
# Track frame offsets: 
#        182
#        14750
#        29840
#        44162
#        59210
#        77760
#        92795
#        105900
#        116692
#        127902
#        141410
#        158280
#        173250
#
# Disc length: 2486 seconds
#
# Revision: 6
# Processed by: cddbd v1.5.2PL0 Copyright (c) Steve Scherf et al.
# Submitted via: ExactAudioCopyFreeDBPlugin 1.0
#
DISCID=ae09b40d
DTITLE=Entertainment Weekly - Entertainment Weekly Presents New Countr
DTITLE=y [CD2]
DYEAR=1992
DGENRE=Country
TTITLE0=The Judds - Mama He's Crazy
TTITLE1=Diamond Rio - Meet In The Middle
TTITLE2=Eddie Rabbitt - I Love A Rainy Night
TTITLE3=The Forester Sisters - Men
TTITLE4=Vince Gill - Pocket Full Of Gold
TTITLE5=Pam Tillis - Maybe It Was Memphis
TTITLE6=Randy Travis - Heroes And Friends
TTITLE7=Tracy Lawrence - Paris, Tennessee
TTITLE8=Patty Loveless - Chains
TTITLE9=Brooks and Dunn - Brand New Man
TTITLE10=Emmylou Harris - Born To Run
TTITLE11=Highway 101 - Somewhere Tonight
TTITLE12=Hank Williams, Jr. - All My Rowdy Friends Are Coming Over Ton
TTITLE12=ight
EXTD=YEAR: 1992
EXTT0=
EXTT1=
EXTT2=
EXTT3=
EXTT4=
EXTT5=
EXTT6=
EXTT7=
EXTT8=
EXTT9=
EXTT10=
EXTT11=
EXTT12=
PLAYORDER=
